<?xml version="1.0" encoding="UTF-8"?>
<svg width="370px" height="171px" viewBox="0 0 370 171" version="1.1" xmlns="http://www.w3.org/2000/svg" xmlns:xlink="http://www.w3.org/1999/xlink">
    <title>bimloket</title>
    <g id="bimloket" stroke="none" stroke-width="1" fill="none" fill-rule="evenodd">
        <path d="M168.161178,53.184 C158.801178,46.464 145.697178,48.48 138.977178,57.84 C132.161178,67.056 119.201178,69.12 109.841178,62.4 C100.577178,55.68 98.4171775,42.624 105.281178,33.264 C105.281178,33.264 105.281178,33.264 105.281178,33.264 C110.417178,26.16 110.657178,16.224 105.281178,8.784 C98.4171775,-0.576 85.4571775,-2.64 76.0971775,4.224 C66.7371775,10.896 64.7211775,24 71.4411775,33.264 C78.2571775,42.624 76.2411775,55.68 66.8811775,62.4 C57.5211775,69.12 44.5611775,67.056 37.6971775,57.84 C37.6971775,57.84 37.6971775,57.84 37.6971775,57.84 C37.6971775,57.84 37.6971775,57.84 37.6971775,57.84 C32.5611775,50.64 23.2011775,47.424 14.4171775,50.16 C3.52117751,53.76 -2.47882249,65.52 0.977177505,76.464 C4.57717751,87.456 16.3371775,93.456 27.2811775,89.856 C38.3211775,86.256 50.0811775,92.256 53.5371775,103.296 C57.1371775,114.24 51.1371775,126 40.2411775,129.6 C40.2411775,129.6 40.2411775,129.6 40.2411775,129.6 C31.8411775,132.24 25.8411775,140.16 25.8411775,149.424 C25.8411775,160.896 35.2011775,170.256 46.7211775,170.256 C58.2411775,170.256 67.4571775,160.896 67.4571775,149.424 C67.4571775,149.424 67.4571775,149.424 67.4571775,149.424 C67.4571775,137.856 76.8171775,128.496 88.3371775,128.496 C99.8571775,128.496 109.217178,137.856 109.217178,149.424 C109.217178,149.424 109.217178,149.424 109.217178,149.424 C109.217178,158.16 114.881178,166.32 123.617178,169.2 C134.561178,172.8 146.321178,166.8 149.921178,155.856 C153.521178,144.864 147.521178,133.056 136.481178,129.6 C136.481178,129.6 136.481178,129.6 136.481178,129.6 C125.537178,126 119.537178,114.24 123.137178,103.296 C126.737178,92.256 138.497178,86.256 149.441178,89.856 C149.441178,89.856 149.441178,89.856 149.441178,89.856 C157.697178,92.64 167.297178,89.76 172.721178,82.32 C179.441178,72.96 177.377178,59.856 168.161178,53.184" id="Fill-4" fill="#00A1E4"></path>
        <path d="M198.401178,85.2 C198.401178,38.16 236.513178,0 283.457178,0 C330.449178,0 368.561178,38.16 368.561178,85.2 C368.561178,132.24 330.449178,170.4 283.457178,170.4 C236.513178,170.4 198.401178,132.24 198.401178,85.2 Z" id="Fill-5" fill="#00A1E4"></path>
        <path d="M235.841178,51.6 C235.841178,50.064 236.657178,49.2 238.241178,49.2 C250.577178,49.2 250.577178,49.2 250.577178,49.2 C258.113178,49.2 263.537178,53.04 263.537178,59.904 C263.537178,63.744 261.617178,67.104 258.497178,68.784 C258.497178,68.928 258.497178,68.928 258.497178,68.928 C262.913178,70.368 265.073178,74.544 265.073178,78.768 C265.073178,87.072 258.497178,90.768 250.817178,90.768 C238.241178,90.768 238.241178,90.768 238.241178,90.768 C236.657178,90.768 235.841178,90.048 235.841178,88.368 L235.841178,51.6 Z M250.721178,66.144 C253.937178,66.144 255.713178,63.84 255.713178,60.864 C255.713178,57.84 253.937178,55.68 250.481178,55.68 C243.281178,55.68 243.281178,55.68 243.281178,55.68 C243.281178,66.144 243.281178,66.144 243.281178,66.144 L250.721178,66.144 Z M251.441178,84.288 C255.233178,84.288 257.393178,81.792 257.393178,78.288 C257.393178,74.784 255.137178,72.288 251.441178,72.288 C243.281178,72.288 243.281178,72.288 243.281178,72.288 C243.281178,84.288 243.281178,84.288 243.281178,84.288 L251.441178,84.288 Z M272.273178,88.368 C272.273178,90.048 273.137178,90.768 274.673178,90.768 C277.409178,90.768 277.409178,90.768 277.409178,90.768 C278.993178,90.768 279.809178,90.048 279.809178,88.368 C279.809178,51.6 279.809178,51.6 279.809178,51.6 C279.809178,50.064 278.993178,49.2 277.409178,49.2 C274.673178,49.2 274.673178,49.2 274.673178,49.2 C273.137178,49.2 272.273178,50.064 272.273178,51.6 L272.273178,88.368 Z M288.113178,88.272 C287.969178,89.952 288.689178,90.768 290.369178,90.768 C293.009178,90.768 293.009178,90.768 293.009178,90.768 C294.545178,90.768 295.409178,90.048 295.505178,88.512 C297.089178,67.584 297.089178,67.584 297.089178,67.584 C297.329178,64.8 297.185178,60.96 297.185178,60.96 C297.329178,60.96 297.329178,60.96 297.329178,60.96 C297.329178,60.96 298.625178,65.184 299.585178,67.584 C305.585178,81.792 305.585178,81.792 305.585178,81.792 C305.969178,83.088 306.929178,83.712 308.369178,83.712 C310.769178,83.712 310.769178,83.712 310.769178,83.712 C312.161178,83.712 313.121178,83.088 313.505178,81.792 C319.601178,67.584 319.601178,67.584 319.601178,67.584 C320.465178,65.184 321.761178,61.104 321.761178,61.104 C321.905178,61.104 321.905178,61.104 321.905178,61.104 C321.905178,61.104 321.761178,64.8 322.001178,67.584 C323.585178,88.512 323.585178,88.512 323.585178,88.512 C323.681178,90.048 324.545178,90.768 326.081178,90.768 C328.721178,90.768 328.721178,90.768 328.721178,90.768 C330.305178,90.768 331.121178,89.952 330.977178,88.272 C328.001178,51.504 328.001178,51.504 328.001178,51.504 C327.905178,50.064 327.041178,49.2 325.505178,49.2 C321.905178,49.2 321.905178,49.2 321.905178,49.2 C320.465178,49.2 319.601178,49.824 319.121178,51.12 C311.729178,69.744 311.729178,69.744 311.729178,69.744 C310.769178,72.288 309.665178,75.888 309.665178,75.888 C309.569178,75.888 309.569178,75.888 309.569178,75.888 C309.569178,75.888 308.369178,72.288 307.409178,69.744 C299.969178,51.12 299.969178,51.12 299.969178,51.12 C299.489178,49.824 298.625178,49.2 297.185178,49.2 C293.489178,49.2 293.489178,49.2 293.489178,49.2 C292.049178,49.2 291.233178,50.064 290.993178,51.504 L288.113178,88.272 Z M235.841178,126.576 C235.841178,127.68 236.321178,128.16 237.377178,128.16 C251.057178,128.16 251.057178,128.16 251.057178,128.16 C252.161178,128.16 252.737178,127.68 252.737178,126.576 C252.737178,125.52 252.737178,125.52 252.737178,125.52 C252.737178,124.416 252.161178,123.84 251.057178,123.84 C240.737178,123.84 240.737178,123.84 240.737178,123.84 C240.737178,102.192 240.737178,102.192 240.737178,102.192 C240.737178,101.136 240.257178,100.656 239.201178,100.656 C237.377178,100.656 237.377178,100.656 237.377178,100.656 C236.321178,100.656 235.841178,101.136 235.841178,102.192 L235.841178,126.576 Z M264.257178,107.856 C270.257178,107.856 275.153178,112.176 275.153178,118.32 C275.153178,124.416 270.257178,128.64 264.257178,128.64 C258.257178,128.64 253.457178,124.416 253.457178,118.32 C253.457178,112.176 258.257178,107.856 264.257178,107.856 L264.257178,107.856 Z M264.257178,124.416 C267.473178,124.416 270.257178,122.016 270.257178,118.32 C270.257178,114.576 267.473178,112.032 264.257178,112.032 C260.993178,112.032 258.353178,114.576 258.353178,118.32 C258.353178,122.016 260.993178,124.416 264.257178,124.416 L264.257178,124.416 Z M278.753178,126.576 C278.753178,127.68 279.329178,128.16 280.433178,128.16 C282.113178,128.16 282.113178,128.16 282.113178,128.16 C283.169178,128.16 283.793178,127.68 283.793178,126.576 C283.793178,119.52 283.793178,119.52 283.793178,119.52 C286.289178,119.52 286.289178,119.52 286.289178,119.52 C290.849178,127.056 290.849178,127.056 290.849178,127.056 C291.329178,127.92 291.953178,128.16 292.769178,128.16 C294.929178,128.16 294.929178,128.16 294.929178,128.16 C296.225178,128.16 296.609178,127.44 295.985178,126.24 C290.129178,117.36 290.129178,117.36 290.129178,117.36 C290.129178,117.216 290.129178,117.216 290.129178,117.216 C295.025178,110.352 295.025178,110.352 295.025178,110.352 C295.889178,109.296 295.409178,108.336 294.065178,108.336 C292.193178,108.336 292.193178,108.336 292.193178,108.336 C291.329178,108.336 290.753178,108.672 290.273178,109.392 C286.193178,115.44 286.193178,115.44 286.193178,115.44 C283.793178,115.44 283.793178,115.44 283.793178,115.44 C283.793178,102.192 283.793178,102.192 283.793178,102.192 C283.793178,101.136 283.169178,100.656 282.113178,100.656 C280.433178,100.656 280.433178,100.656 280.433178,100.656 C279.329178,100.656 278.753178,101.136 278.753178,102.192 L278.753178,126.576 Z M307.985178,107.856 C313.601178,107.856 316.721178,111.936 316.721178,117.36 C316.721178,118.176 316.001178,119.04 315.041178,119.04 C302.945178,119.04 302.945178,119.04 302.945178,119.04 C303.329178,122.64 305.969178,124.416 308.945178,124.416 C310.769178,124.416 312.305178,123.84 313.265178,123.216 C314.225178,122.736 314.801178,122.88 315.425178,123.696 C315.905178,124.56 315.905178,124.56 315.905178,124.56 C316.241178,125.376 316.145178,126.24 315.281178,126.72 C313.985178,127.536 311.729178,128.64 308.609178,128.64 C301.985178,128.64 297.905178,123.936 297.905178,118.32 C297.905178,112.176 302.129178,107.856 307.985178,107.856 L307.985178,107.856 Z M311.921178,116.016 C311.825178,113.28 310.145178,111.552 307.889178,111.552 C305.345178,111.552 303.569178,113.376 303.089178,116.016 L311.921178,116.016 Z M321.281178,121.056 C321.281178,126.48 325.505178,128.4 329.105178,128.4 C330.401178,128.4 330.977178,127.92 330.977178,126.72 C330.977178,125.52 330.977178,125.52 330.977178,125.52 C330.977178,124.416 330.641178,124.08 329.441178,123.936 C328.145178,123.84 326.225178,123.216 326.225178,120.24 C326.225178,112.512 326.225178,112.512 326.225178,112.512 C329.201178,112.512 329.201178,112.512 329.201178,112.512 C330.161178,112.512 330.785178,112.032 330.785178,110.976 C330.785178,110.256 330.785178,110.256 330.785178,110.256 C330.785178,109.152 330.161178,108.672 329.105178,108.672 C326.225178,108.672 326.225178,108.672 326.225178,108.672 C326.225178,104.592 326.225178,104.592 326.225178,104.592 C326.225178,103.536 325.601178,102.912 324.641178,102.912 C323.105178,102.912 323.105178,102.912 323.105178,102.912 C322.001178,102.912 321.425178,103.536 321.425178,104.592 C321.425178,108.672 321.425178,108.672 321.425178,108.672 C320.321178,108.672 320.321178,108.672 320.321178,108.672 C319.265178,108.672 318.641178,109.152 318.641178,110.256 C318.641178,110.976 318.641178,110.976 318.641178,110.976 C318.641178,112.032 319.265178,112.512 320.225178,112.512 C321.281178,112.512 321.281178,112.512 321.281178,112.512 L321.281178,121.056 Z" id="Fill-6" fill="#FFFFFF"></path>
    </g>
</svg>